<svg width="512" height="512" viewBox="0 0 512 512" fill="none" xmlns="http://www.w3.org/2000/svg">
<rect width="512" height="512" fill="#0F2026"/>
<path d="M411.923 231.851C409.095 231.851 406.751 230.922 404.893 229.064C403.034 227.205 402.105 224.862 402.105 222.033C402.105 219.205 403.034 216.862 404.893 215.003C406.751 213.144 409.095 212.215 411.923 212.215C414.751 212.215 417.095 213.144 418.953 215.003C420.812 216.862 421.741 219.205 421.741 222.033C421.741 224.862 420.812 227.205 418.953 229.064C417.095 230.922 414.751 231.851 411.923 231.851ZM392.893 299.003V297.064L401.256 293.185V255.851L393.256 250.639V248.7L421.135 242.033H423.075V293.185L429.984 297.064V299.003H392.893Z" fill="#F6F4C1"/>
<path d="M337.94 299.003V297.064L346.304 293.185V257.064L338.304 251.851V249.912L364.971 242.033H366.91L368.001 253.306H368.607C370.708 250.154 372.526 247.771 374.061 246.154C375.597 244.538 377.011 243.447 378.304 242.882C379.678 242.316 381.213 242.033 382.91 242.033C383.637 242.033 384.405 242.114 385.213 242.276C386.021 242.437 386.789 242.639 387.516 242.882C388.89 243.286 389.819 243.811 390.304 244.458C390.869 245.023 391.152 245.67 391.152 246.397C391.152 246.963 391.031 247.609 390.789 248.336L387.516 257.548H386.667L384.486 256.821C383.112 256.336 381.9 256.013 380.849 255.851C379.88 255.609 378.627 255.488 377.092 255.488C375.314 255.488 373.657 255.932 372.122 256.821C370.587 257.629 369.253 258.68 368.122 259.973V293.185L378.667 297.064V299.003H337.94Z" fill="#F6F4C1"/>
<path d="M304.515 300.215C298.535 300.215 293.242 298.882 288.636 296.215C284.03 293.468 280.434 289.912 277.848 285.548C275.343 281.104 274.091 276.296 274.091 271.124C274.091 265.952 275.343 261.144 277.848 256.7C280.434 252.255 284.03 248.7 288.636 246.033C293.242 243.367 298.535 242.033 304.515 242.033C310.495 242.033 315.788 243.367 320.394 246.033C325 248.7 328.555 252.255 331.06 256.7C333.646 261.144 334.939 265.952 334.939 271.124C334.939 276.296 333.646 281.104 331.06 285.548C328.555 289.912 325 293.468 320.394 296.215C315.788 298.882 310.495 300.215 304.515 300.215ZM305.606 293.791C307.303 293.791 308.717 292.862 309.848 291.003C310.98 289.144 311.788 286.72 312.273 283.73C312.838 280.66 313.121 277.266 313.121 273.548C313.121 269.023 312.798 264.862 312.151 261.064C311.505 257.266 310.454 254.195 309 251.851C307.626 249.508 305.848 248.336 303.666 248.336C301.808 248.336 300.313 249.266 299.182 251.124C298.05 252.902 297.202 255.326 296.636 258.397C296.151 261.387 295.909 264.781 295.909 268.579C295.909 273.023 296.232 277.185 296.879 281.064C297.606 284.862 298.656 287.932 300.03 290.276C301.485 292.619 303.343 293.791 305.606 293.791Z" fill="#F6F4C1"/>
<path d="M255.611 300.215C249.792 300.215 245.106 299.165 241.55 297.064C237.994 294.963 236.217 292.013 236.217 288.215V248.579H228.338V246.276L240.095 243.245L254.52 229.912H258.035V243.245H275.247V248.579H258.035V284.458C258.035 286.559 258.883 288.094 260.58 289.064C262.358 290.033 264.419 290.518 266.762 290.518C268.217 290.518 269.469 290.437 270.52 290.276C271.651 290.114 272.823 289.912 274.035 289.67L274.398 289.912V292.579C272.782 294.599 270.156 296.377 266.52 297.912C262.964 299.447 259.328 300.215 255.611 300.215Z" fill="#F6F4C1"/>
<path d="M182.111 300.215C177.181 300.215 173.141 298.922 169.989 296.336C166.919 293.75 165.383 289.912 165.383 284.821V249.064L157.02 245.185V243.245H187.201V280.336C187.201 282.68 187.808 284.498 189.02 285.791C190.232 287.003 191.767 287.609 193.626 287.609C194.676 287.609 195.767 287.367 196.898 286.882C198.111 286.397 199.201 285.831 200.171 285.185V249.064L193.626 245.185V243.245H221.989V293.185L228.898 297.064V299.003H200.171V291.245H199.686C197.02 293.912 194.393 296.094 191.808 297.791C189.222 299.407 185.989 300.215 182.111 300.215Z" fill="#F6F4C1"/>
<path d="M105.47 299.003V297.064L116.258 291.973V261.67L90.0765 226.033L81.3492 220.942V219.003H124.137V220.942L114.804 225.67V226.154L135.531 254.033L154.077 226.397V225.912L144.38 220.942V219.003H173.228V220.942L164.864 224.942L139.289 261.67V291.973L150.077 297.064V299.003H105.47Z" fill="#F6F4C1"/>
</svg>
